# xmcd
#
# Track frame offsets:
#	150
#	13765
#	27036
#	40133
#	52958
#	64352
#	74559
#	87536
#	99520
#	123150
#	137334
#	148516
#	160399
#	173007
#	186500
#	198470
#	210649
#	222179
#	232829
#	246715
#
# Disc length: 3470 seconds
#
# Revision: 0
# Processed by: cddbd v1.5.2PL0 Copyright (c) Steve Scherf et al.
# Submitted via: audiograbber 1.83.01
#
DISCID=260d8c14
DTITLE=B.B. King - Can't Kick The Blues 2
DYEAR=1900
DGENRE=Blues
TTITLE0=Sweet Little Angel
TTITLE1=Blind Love
TTITLE2=When My Heart Beats Like A Hammer
TTITLE3=Be Careful With A Fool
TTITLE4=Sweet Sixteen (Part 1)
TTITLE5=Come By Here
TTITLE6=I Love You So
TTITLE7=Don't You Want A Man Like Me
TTITLE8=You Done Lost Your Good Thing Now
TTITLE9=Things Are Not The Same
TTITLE10=Days Of Old
TTITLE11=You Know I Go For You
TTITLE12=Ten Long Years
TTITLE13=Crying Won't Help
TTITLE14=We Can't Make It
TTITLE15=Don't Look Now, But You Got The Blues
TTITLE16=Did You Ever Love A Woman
TTITLE17=I've Got Papers On You, Baby
TTITLE18=You Know I Love You
TTITLE19=Boogie Rock (House Rocker)
EXTD=
EXTT0=
EXTT1=
EXTT2=
EXTT3=
EXTT4=
EXTT5=
EXTT6=
EXTT7=
EXTT8=
EXTT9=
EXTT10=
EXTT11=
EXTT12=
EXTT13=
EXTT14=
EXTT15=
EXTT16=
EXTT17=
EXTT18=
EXTT19=
PLAYORDER=
